<svg width="981" height="796" viewBox="0 0 981 796" fill="none" xmlns="http://www.w3.org/2000/svg">
<path d="M412.96 0C503.397 0 581.074 48.477 614.8 117.747C619.983 117.372 625.224 117.179 630.516 117.179C723.187 117.179 800.438 175.759 817.822 253.469C911.772 275.625 981 351.626 981 441.976C981 531.164 913.54 606.37 821.433 629.602C819.041 721.355 734.481 795.083 630.516 795.083C585.46 795.083 544.049 781.233 511.391 758.073C480.466 767.781 447.186 773.064 412.516 773.064C350.774 773.064 293.441 756.312 245.973 727.65C237.381 728.556 228.638 729.023 219.772 729.023C98.3959 729.023 0.000241668 641.703 0 533.988C0 490.357 16.1438 450.072 43.4199 417.581C33.7397 398.236 28.3584 376.82 28.3584 354.289C28.3584 271.365 101.216 203.543 193.223 198.485C193.2 197.338 193.188 196.188 193.188 195.035C193.189 87.3202 291.583 4.39218e-05 412.96 0Z" fill="#0CA46D"/>
</svg>
